<svg width="130" height="126" viewBox="0 0 130 126" fill="none" xmlns="http://www.w3.org/2000/svg">
<path d="M0 43C0 40.2386 2.23858 38 5 38C7.76142 38 10 40.2386 10 43V83C10 85.7614 7.76142 88 5 88C2.23858 88 0 85.7614 0 83V43Z" fill="black"/>
<path d="M120 43C120 40.2386 122.239 38 125 38C127.761 38 130 40.2386 130 43V83C130 85.7614 127.761 88 125 88C122.239 88 120 85.7614 120 83V43Z" fill="black"/>
<path d="M20 28C20 25.2386 22.2386 23 25 23C27.7614 23 30 25.2386 30 28V98C30 100.761 27.7614 103 25 103C22.2386 103 20 100.761 20 98V28Z" fill="black"/>
<path d="M100 28C100 25.2386 102.239 23 105 23C107.761 23 110 25.2386 110 28V98C110 100.761 107.761 103 105 103C102.239 103 100 100.761 100 98V28Z" fill="black"/>
<path d="M40 13C40 10.2386 42.2386 8 45 8C47.7614 8 50 10.2386 50 13V113C50 115.761 47.7614 118 45 118C42.2386 118 40 115.761 40 113V13Z" fill="black"/>
<path d="M22.6559 102.546C18.8524 99.5944 20.9399 93.5 25.7546 93.5C26.8854 93.5 27.9836 93.8793 28.8735 94.5772L47.7221 109.36C50.3531 111.424 50.2518 115.44 47.5201 117.368C45.7259 118.635 43.3146 118.58 41.5796 117.233L22.6559 102.546Z" fill="black"/>
<path d="M107.434 23.4429C111.572 26.7101 109.262 33.3642 103.99 33.3642C102.651 33.3642 101.358 32.8813 100.347 32.0042L82.5434 16.5574C80.1789 14.5059 80.2523 10.813 82.6964 8.85698C84.5179 7.39929 87.1042 7.39081 88.9352 8.8365L107.434 23.4429Z" fill="black"/>
<path d="M80 13C80 10.2386 82.2386 8 85 8C87.7614 8 90 10.2386 90 13V113C90 115.761 87.7614 118 85 118C82.2386 118 80 115.761 80 113V13Z" fill="black"/>
<path d="M60 23C60 20.2386 62.2386 18 65 18C67.7614 18 70 20.2386 70 23V103C70 105.761 67.7614 108 65 108C62.2386 108 60 105.761 60 103V23Z" fill="black"/>
<path d="M60 5C60 2.23858 62.2386 0 65 0C67.7614 0 70 2.23858 70 5V121C70 123.761 67.7614 126 65 126C62.2386 126 60 123.761 60 121V5Z" fill="black"/>
</svg>
